{"title":"Percy Jackson Sea of Monsters 2013 WEBRip XviD READNFO-INFERNO","uid":9134621,"size":1470865998,"categoryP":"video","categoryS":"movies","magnet":"?xt=urn:btih:ba275458073b309a39c8ea226d17fc9c0b6178e2&amp;dn=Percy+Jackson+Sea+of+Monsters+2013+WEBRip+XviD+READNFO-INFERNO&amp;tr=udp%3A%2F%2Ftracker.openbittorrent.com%3A80&amp;tr=udp%3A%2F%2Fopen.demonii.com%3A1337&amp;tr=udp%3A%2F%2Ftracker.coppersurfer.tk%3A6969&amp;tr=udp%3A%2F%2Fexodus.desync.com%3A6969","seeders":2,"leechers":0,"uploader":"TeX","files":3,"time":1383392473,"description":" &lt;a href=&quot;http://www.imdb.com/title/tt1854564/&quot; rel=&quot;nofollow&quot; target=&quot;_NEW&quot;&gt;http://www.imdb.com/title/tt1854564/&lt;/a&gt;\n\nFormat                           : AVI\nFormat/Info                      : Audio Video Interleave\nFile size                        : 1.36 GiB\nDuration                         : 1h 46mn\nOverall bit rate                 : 1 829 Kbps\nWriting application              : AVI-Mux GUI 1.17.8.3, Feb 16 201019:42:50\nWriting library                  : VirtualDub build 35390/release\n\nVideo\nID                               : 0\nFormat                           : MPEG-4 Visual\nFormat profile                   : Advanced Simple@L5\nFormat settings, BVOP            : Yes\nFormat settings, QPel            : No\nFormat settings, GMC             : No warppoints\nFormat settings, Matrix          : Default (H.263)\nMuxing mode                      : Packed bitstream\nCodec ID                         : XVID\nCodec ID/Hint                    : XviD\nDuration                         : 1h 46mn\nBit rate                         : 1 692 Kbps\nWidth                            : 720 pixels\nHeight                           : 304 pixels\nDisplay aspect ratio             : 2.35:1\nFrame rate                       : 23.976 fps\nColor space                      : YUV\nChroma subsampling               : 4:2:0\nBit depth                        : 8 bits\nScan type                        : Progressive\nBits/(Pixel*Frame)               : 0.322\nStream size                      : 1.26 GiB (93%)\nWriting library                  : XviD 1.2.1 (UTC 2008-12-04)\n\nAudio\nID                               : 1\nFormat                           : MPEG Audio\nFormat version                   : Version 1\nFormat profile                   : Layer 3\nMode                             : Joint stereo\nMode extension                   : MS Stereo\nCodec ID                         : 55\nCodec ID/Hint                    : MP3\nDuration                         : 1h 46mn\nBit rate mode                    : Constant\nBit rate                         : 128 Kbps\nChannel(s)                       : 2 channels\nSampling rate                    : 48.0 KHz\nStream size                      : 97.2 MiB (7%)\nAlignment                        : Split accross interleaves\nInterleave, duration             : 42 ms (1.00 video frame)\nInterleave, preload duration     : 500 ms\nWriting library                  : LAME3.98.2\n\nWorkdone:\n\nSource was awesome, just adjusted the contrast a little and lightly used msu denoiser.\n\nAudio:\nFor the audio on the other hand, was terrible. Thanks to Fanta for syncing, but it wasnt fully sync at the end which took a few cuts and paste here and there. Used MAGIX to clean up audio noise and audio enhancement to make it more bareable. Also replace left channel with right channel since it wasnt on the same levels. Took a few hours on this audio... So hope it good enough for you all till studio or Blu Ray comes out. ENJOY!\n\nOur Rating:\n\nV9 A5-6\n","torrent":{"xt":"urn:btih:ba275458073b309a39c8ea226d17fc9c0b6178e2","amp;dn":"Percy+Jackson+Sea+of+Monsters+2013+WEBRip+XviD+READNFO-INFERNO","amp;tr":["udp%3A%2F%2Ftracker.openbittorrent.com%3A80","udp%3A%2F%2Fopen.demonii.com%3A1337","udp%3A%2F%2Ftracker.coppersurfer.tk%3A6969","udp%3A%2F%2Fexodus.desync.com%3A6969"],"infoHash":"ba275458073b309a39c8ea226d17fc9c0b6178e2","infoHashBuffer":{"type":"Buffer","data":[186,39,84,88,7,59,48,154,57,200,234,34,109,23,252,156,11,97,120,226]},"announce":[],"urlList":[]}}